<svg version="1.1" id="Layer_1" xmlns="http://www.w3.org/2000/svg" xmlns:xlink="http://www.w3.org/1999/xlink" x="0px" y="0px"
	 width="100%" viewBox="0 0 1166 976" enable-background="new 0 0 1166 976" xml:space="preserve">
<path fill="#EC3F5B" opacity="1.000000" stroke="none" 
	d="
M694.000000,977.000000 
	C462.693573,977.000000 231.887131,977.000000 1.040348,977.000000 
	C1.040348,651.731506 1.040348,326.462952 1.040348,1.097213 
	C389.556549,1.097213 778.113098,1.097213 1166.834839,1.097213 
	C1166.834839,326.333252 1166.834839,651.666626 1166.834839,977.000000 
	C1009.462708,977.000000 851.981384,977.000000 694.000000,977.000000 
M933.766479,791.630798 
	C928.038208,773.408203 922.309998,755.185608 916.933228,738.081299 
	C931.115845,726.700745 944.896362,715.697754 958.616699,704.620239 
	C979.072998,688.104004 997.520691,669.537903 1013.692993,648.843384 
	C1028.660278,629.691040 1041.950806,609.344543 1053.098511,587.723022 
	C1062.497437,569.493469 1070.241211,550.461182 1074.711060,530.433289 
	C1078.693970,512.587646 1081.187256,494.410187 1084.365356,476.384003 
	C1087.348877,459.461487 1085.869507,442.443329 1083.832642,425.704651 
	C1081.832886,409.271484 1077.603516,393.089752 1074.000000,376.876038 
	C1067.700562,348.532379 1055.653320,322.494171 1040.196167,298.162537 
	C1030.027710,282.156281 1018.423096,267.049622 1007.194214,251.736237 
	C1002.791931,245.732712 998.139343,239.758835 992.760864,234.656815 
	C981.130798,223.624435 968.672607,213.463120 957.077393,202.396271 
	C941.522949,187.550537 923.822815,175.648926 905.654602,164.520996 
	C888.777893,154.184052 871.319702,144.742432 853.757507,135.598099 
	C842.191589,129.575974 830.253235,124.050110 818.011658,119.592682 
	C795.888977,111.537315 773.558716,103.974335 751.036072,97.122978 
	C736.236511,92.620964 721.052551,89.178833 705.848450,86.265869 
	C689.968201,83.223343 673.875000,81.256126 657.841980,79.058357 
	C644.762512,77.265465 631.673401,75.137100 618.518738,74.395752 
	C600.262390,73.366890 581.923584,72.832916 563.651672,73.306435 
	C542.975281,73.842270 522.329041,75.656792 501.679901,77.064445 
	C494.602142,77.546944 487.492096,78.105339 480.506348,79.280258 
	C463.155579,82.198479 445.800110,85.165070 428.576416,88.738297 
	C414.902679,91.575050 401.236359,94.737549 387.899933,98.838890 
	C370.127350,104.304459 352.480591,110.310921 335.142578,117.022308 
	C316.236328,124.340744 297.294525,131.834122 279.206024,140.919281 
	C262.860168,149.129135 247.708649,159.697784 231.913239,169.027817 
	C214.340668,179.407547 198.335342,191.893967 183.296585,205.560120 
	C170.189178,217.471176 157.551315,229.915955 145.039703,242.457840 
	C139.459930,248.051147 134.206818,254.114624 129.661911,260.567902 
	C117.889870,277.282898 106.123123,293.959442 96.148361,311.940094 
	C87.270775,327.942963 80.122482,344.511200 74.421608,361.763702 
	C65.734268,388.054077 59.810795,415.000671 59.259151,442.740295 
	C58.933384,459.121521 59.049282,475.760895 61.529354,491.890106 
	C65.255859,516.125671 71.178665,539.937927 80.466995,562.920410 
	C88.813667,583.572937 99.338188,602.810669 111.493164,621.379456 
	C126.110626,643.710022 142.239868,664.713379 161.689133,683.066223 
	C167.127823,688.198303 172.226257,693.754639 178.050476,698.402466 
	C195.057602,711.974304 211.033661,726.736694 229.922806,738.076599 
	C250.606720,750.493958 270.594177,764.110596 292.720398,773.893250 
	C309.756317,781.425232 327.036407,788.466553 344.482697,794.991394 
	C361.609650,801.396790 378.862000,807.678955 396.468994,812.527466 
	C413.106323,817.108887 430.211060,820.122070 447.229645,823.154724 
	C465.548065,826.418945 483.943176,829.446350 502.420898,831.564819 
	C518.519470,833.410461 534.767273,834.380859 550.971863,834.755493 
	C567.074890,835.127869 583.208008,833.950500 599.324890,834.034424 
	C624.584778,834.165894 649.461670,830.725098 674.335205,826.986023 
	C676.859802,826.606567 679.782715,825.809875 681.951660,826.659607 
	C691.599182,830.439087 700.994324,834.855957 710.564270,838.841980 
	C729.575745,846.760376 748.659973,854.503906 767.680908,862.399780 
	C785.978699,869.995605 804.196960,877.783630 822.517700,885.322876 
	C847.381104,895.554565 872.328247,905.582581 897.203369,915.785706 
	C921.638733,925.808350 945.985107,936.050720 970.508118,945.852478 
	C972.923645,946.817932 976.767456,946.143066 979.049011,944.753357 
	C980.327393,943.974670 980.552979,939.920898 979.896179,937.753967 
	C974.103882,918.643066 968.015137,899.621765 961.997620,880.579285 
	C952.703430,851.168213 943.396118,821.761353 933.766479,791.630798 
z"/>
<path fill="#FFFEFE" opacity="1.000000" stroke="none" 
	d="
M933.930481,791.991699 
	C943.396118,821.761353 952.703430,851.168213 961.997620,880.579285 
	C968.015137,899.621765 974.103882,918.643066 979.896179,937.753967 
	C980.552979,939.920898 980.327393,943.974670 979.049011,944.753357 
	C976.767456,946.143066 972.923645,946.817932 970.508118,945.852478 
	C945.985107,936.050720 921.638733,925.808350 897.203369,915.785706 
	C872.328247,905.582581 847.381104,895.554565 822.517700,885.322876 
	C804.196960,877.783630 785.978699,869.995605 767.680908,862.399780 
	C748.659973,854.503906 729.575745,846.760376 710.564270,838.841980 
	C700.994324,834.855957 691.599182,830.439087 681.951660,826.659607 
	C679.782715,825.809875 676.859802,826.606567 674.335205,826.986023 
	C649.461670,830.725098 624.584778,834.165894 599.324890,834.034424 
	C583.208008,833.950500 567.074890,835.127869 550.971863,834.755493 
	C534.767273,834.380859 518.519470,833.410461 502.420898,831.564819 
	C483.943176,829.446350 465.548065,826.418945 447.229645,823.154724 
	C430.211060,820.122070 413.106323,817.108887 396.468994,812.527466 
	C378.862000,807.678955 361.609650,801.396790 344.482697,794.991394 
	C327.036407,788.466553 309.756317,781.425232 292.720398,773.893250 
	C270.594177,764.110596 250.606720,750.493958 229.922806,738.076599 
	C211.033661,726.736694 195.057602,711.974304 178.050476,698.402466 
	C172.226257,693.754639 167.127823,688.198303 161.689133,683.066223 
	C142.239868,664.713379 126.110626,643.710022 111.493164,621.379456 
	C99.338188,602.810669 88.813667,583.572937 80.466995,562.920410 
	C71.178665,539.937927 65.255859,516.125671 61.529354,491.890106 
	C59.049282,475.760895 58.933384,459.121521 59.259151,442.740295 
	C59.810795,415.000671 65.734268,388.054077 74.421608,361.763702 
	C80.122482,344.511200 87.270775,327.942963 96.148361,311.940094 
	C106.123123,293.959442 117.889870,277.282898 129.661911,260.567902 
	C134.206818,254.114624 139.459930,248.051147 145.039703,242.457840 
	C157.551315,229.915955 170.189178,217.471176 183.296585,205.560120 
	C198.335342,191.893967 214.340668,179.407547 231.913239,169.027817 
	C247.708649,159.697784 262.860168,149.129135 279.206024,140.919281 
	C297.294525,131.834122 316.236328,124.340744 335.142578,117.022308 
	C352.480591,110.310921 370.127350,104.304459 387.899933,98.838890 
	C401.236359,94.737549 414.902679,91.575050 428.576416,88.738297 
	C445.800110,85.165070 463.155579,82.198479 480.506348,79.280258 
	C487.492096,78.105339 494.602142,77.546944 501.679901,77.064445 
	C522.329041,75.656792 542.975281,73.842270 563.651672,73.306435 
	C581.923584,72.832916 600.262390,73.366890 618.518738,74.395752 
	C631.673401,75.137100 644.762512,77.265465 657.841980,79.058357 
	C673.875000,81.256126 689.968201,83.223343 705.848450,86.265869 
	C721.052551,89.178833 736.236511,92.620964 751.036072,97.122978 
	C773.558716,103.974335 795.888977,111.537315 818.011658,119.592682 
	C830.253235,124.050110 842.191589,129.575974 853.757507,135.598099 
	C871.319702,144.742432 888.777893,154.184052 905.654602,164.520996 
	C923.822815,175.648926 941.522949,187.550537 957.077393,202.396271 
	C968.672607,213.463120 981.130798,223.624435 992.760864,234.656815 
	C998.139343,239.758835 1002.791931,245.732712 1007.194214,251.736237 
	C1018.423096,267.049622 1030.027710,282.156281 1040.196167,298.162537 
	C1055.653320,322.494171 1067.700562,348.532379 1074.000000,376.876038 
	C1077.603516,393.089752 1081.832886,409.271484 1083.832642,425.704651 
	C1085.869507,442.443329 1087.348877,459.461487 1084.365356,476.384003 
	C1081.187256,494.410187 1078.693970,512.587646 1074.711060,530.433289 
	C1070.241211,550.461182 1062.497437,569.493469 1053.098511,587.723022 
	C1041.950806,609.344543 1028.660278,629.691040 1013.692993,648.843384 
	C997.520691,669.537903 979.072998,688.104004 958.616699,704.620239 
	C944.896362,715.697754 931.115845,726.700745 916.933228,738.081299 
	C922.309998,755.185608 928.038208,773.408203 933.930481,791.991699 
M622.144348,201.316513 
	C610.397400,200.076843 598.677551,198.343735 586.898010,197.698441 
	C560.934631,196.276138 535.033936,197.058929 509.105011,199.696777 
	C459.189728,204.774857 411.536926,217.796692 366.432281,239.555573 
	C337.833008,253.352112 311.578156,270.812653 287.992340,292.420319 
	C266.179504,312.403717 248.326675,335.347382 235.212997,361.533203 
	C220.250259,391.411316 212.822525,423.324768 215.068726,457.172699 
	C216.862442,484.201965 223.790421,509.784088 236.309006,533.622070 
	C249.716202,559.152283 267.202942,581.628296 288.607941,601.255249 
	C310.687622,621.500793 335.241211,638.026428 361.801300,651.302246 
	C400.007996,670.399353 440.419189,683.210205 482.747864,689.814758 
	C511.112946,694.240601 539.604980,697.151733 568.287720,695.944092 
	C588.041321,695.112427 607.722473,692.616394 627.449951,691.038269 
	C630.145874,690.822632 633.153137,691.041016 635.627319,692.030762 
	C674.299011,707.500305 712.903931,723.136963 751.530273,738.719971 
	C775.941406,748.568176 800.339966,758.448669 824.821167,768.119751 
	C826.834106,768.914856 829.941833,768.984009 831.584106,767.917358 
	C832.596069,767.260132 832.220947,763.701294 831.713684,761.630127 
	C830.646057,757.270813 829.103699,753.026062 827.717224,748.746887 
	C815.545105,711.181213 803.390381,673.609924 791.136963,636.070801 
	C790.172302,633.115540 790.356506,631.258545 793.214539,629.408997 
	C813.886536,616.031189 832.388062,600.038147 848.567688,581.521729 
	C868.692322,558.490479 884.779724,533.030945 894.014099,503.543518 
	C902.037720,477.922272 905.368408,451.884796 901.964661,425.175995 
	C899.292664,404.208984 893.621338,384.023560 884.422852,364.975586 
	C865.433289,325.652283 836.815491,294.348969 801.643066,269.171783 
	C771.821655,247.824936 739.088928,231.817322 704.177368,220.250473 
	C677.676819,211.470337 650.667542,205.158386 622.144348,201.316513 
z"/>
<path fill="#EC405B" opacity="1.000000" stroke="none" 
	d="
M622.587952,201.361267 
	C650.667542,205.158386 677.676819,211.470337 704.177368,220.250473 
	C739.088928,231.817322 771.821655,247.824936 801.643066,269.171783 
	C836.815491,294.348969 865.433289,325.652283 884.422852,364.975586 
	C893.621338,384.023560 899.292664,404.208984 901.964661,425.175995 
	C905.368408,451.884796 902.037720,477.922272 894.014099,503.543518 
	C884.779724,533.030945 868.692322,558.490479 848.567688,581.521729 
	C832.388062,600.038147 813.886536,616.031189 793.214539,629.408997 
	C790.356506,631.258545 790.172302,633.115540 791.136963,636.070801 
	C803.390381,673.609924 815.545105,711.181213 827.717224,748.746887 
	C829.103699,753.026062 830.646057,757.270813 831.713684,761.630127 
	C832.220947,763.701294 832.596069,767.260132 831.584106,767.917358 
	C829.941833,768.984009 826.834106,768.914856 824.821167,768.119751 
	C800.339966,758.448669 775.941406,748.568176 751.530273,738.719971 
	C712.903931,723.136963 674.299011,707.500305 635.627319,692.030762 
	C633.153137,691.041016 630.145874,690.822632 627.449951,691.038269 
	C607.722473,692.616394 588.041321,695.112427 568.287720,695.944092 
	C539.604980,697.151733 511.112946,694.240601 482.747864,689.814758 
	C440.419189,683.210205 400.007996,670.399353 361.801300,651.302246 
	C335.241211,638.026428 310.687622,621.500793 288.607941,601.255249 
	C267.202942,581.628296 249.716202,559.152283 236.309006,533.622070 
	C223.790421,509.784088 216.862442,484.201965 215.068726,457.172699 
	C212.822525,423.324768 220.250259,391.411316 235.212997,361.533203 
	C248.326675,335.347382 266.179504,312.403717 287.992340,292.420319 
	C311.578156,270.812653 337.833008,253.352112 366.432281,239.555573 
	C411.536926,217.796692 459.189728,204.774857 509.105011,199.696777 
	C535.033936,197.058929 560.934631,196.276138 586.898010,197.698441 
	C598.677551,198.343735 610.397400,200.076843 622.587952,201.361267 
z"/>
</svg>